<?xml version="1.0" encoding="UTF-8" standalone="no"?>
<svg
   width="24"
   height="24"
   viewBox="0 0 24 24"
   fill="none"
   version="1.1"
   id="svg1"
   sodipodi:docname="ImportJson.svg"
   inkscape:export-filename="ImportJson.png"
   inkscape:export-xdpi="96"
   inkscape:export-ydpi="96"
   inkscape:version="1.3 (0e150ed6c4, 2023-07-21)"
   xmlns:inkscape="http://www.inkscape.org/namespaces/inkscape"
   xmlns:sodipodi="http://sodipodi.sourceforge.net/DTD/sodipodi-0.dtd"
   xmlns="http://www.w3.org/2000/svg"
   xmlns:svg="http://www.w3.org/2000/svg">
  <defs
     id="defs1" />
  <sodipodi:namedview
     id="namedview1"
     pagecolor="#ffffff"
     bordercolor="#000000"
     borderopacity="0.25"
     inkscape:showpageshadow="2"
     inkscape:pageopacity="0.0"
     inkscape:pagecheckerboard="0"
     inkscape:deskcolor="#d1d1d1"
     inkscape:zoom="47.325"
     inkscape:cx="-1.1093502"
     inkscape:cy="15.964078"
     inkscape:window-width="3840"
     inkscape:window-height="2089"
     inkscape:window-x="-8"
     inkscape:window-y="-8"
     inkscape:window-maximized="1"
     inkscape:current-layer="svg1" />
  <path
     d="m 2.7886952,4.9207607 c 0,-1.3525585 1.0751782,-2.4490227 2.4014791,-2.4490227 H 15.250811 c 0.636872,0 1.247688,0.2580168 1.698086,0.7173065 l 1.946759,1.9853248 c 0.450397,0.4592774 0.703393,1.0821986 0.703393,1.7317162 V 10.553158 C 19.218655,10.35486 18.816887,10.193066 18.398309,10.072317 V 6.9060855 c 0,-0.3247649 -0.126558,-0.6362194 -0.351696,-0.8658643 L 16.099854,4.0548965 C 15.874715,3.8252639 15.569247,3.6962494 15.250811,3.6962494 h -0.45472 v 3.0612784 c 0,1.0144219 -0.806417,1.836767 -1.80111,1.836767 H 8.1920233 c -0.9947287,0 -1.8011094,-0.8223451 -1.8011094,-1.836767 V 3.6962494 H 5.1901743 c -0.6631444,0 -1.2007395,0.5482382 -1.2007395,1.2245113 V 17.165874 c 0,0.676298 0.5375951,1.224512 1.2007395,1.224512 v -5.510301 c 0,-1.014386 0.8063807,-1.836767 1.8011094,-1.836767 h 5.8078573 c -0.484018,0.347638 -0.920247,0.759931 -1.296439,1.224511 H 6.9912837 c -0.3315722,0 -0.6003698,0.274168 -0.6003698,0.612256 v 5.510301 h 3.8508081 c 0.118404,0.426864 0.277058,0.836586 0.471506,1.224511 H 5.1901743 c -1.3263009,0 -2.4014791,-1.096427 -2.4014791,-2.449023 z M 7.5916535,3.6962494 v 3.0612784 c 0,0.3381365 0.2687975,0.6122556 0.6003698,0.6122556 h 4.8029577 c 0.331525,0 0.60037,-0.2741191 0.60037,-0.6122556 V 3.6962494 Z M 11.193872,16.553619 c 0,3.043278 2.41913,5.510301 5.403328,5.510301 2.984198,0 5.403328,-2.467023 5.403328,-5.510301 0,-3.043278 -2.41913,-5.510301 -5.403328,-5.510301 -2.984198,0 -5.403328,2.467023 -5.403328,5.510301 z m 7.804807,-3.673534 c 0.331524,0 0.60037,0.274168 0.60037,0.612255 v 1.836767 c 0,0.338088 -0.268846,0.612256 -0.60037,0.612256 H 17.19757 c -0.331524,0 -0.60037,-0.274168 -0.60037,-0.612256 0,-0.338087 0.268846,-0.612255 0.60037,-0.612255 h 0.562186 c -0.0604,-0.03404 -0.122355,-0.06563 -0.185754,-0.09429 -0.294542,-0.133839 -0.612498,-0.205718 -0.934776,-0.211473 -0.322399,-0.0058 -0.642636,0.05474 -0.94162,0.177922 -0.298984,0.123185 -0.570592,0.306495 -0.798612,0.539029 -0.234384,0.239025 -0.614538,0.239025 -0.849043,0 -0.234384,-0.239147 -0.234384,-0.626827 0,-0.865851 0.342091,-0.348741 0.749382,-0.623767 1.197858,-0.808545 0.448476,-0.184779 0.928772,-0.275515 1.41231,-0.266821 0.483658,0.0086 0.960591,0.116451 1.402344,0.317026 0.11515,0.05229 0.227179,0.110573 0.335846,0.174492 v -0.186003 c 0,-0.338087 0.268846,-0.612255 0.60037,-0.612255 z m -1.052088,6.773507 c -0.448476,0.184778 -0.928772,0.275515 -1.41231,0.266821 -0.483658,-0.0086 -0.960591,-0.116451 -1.402343,-0.317026 -0.115151,-0.05229 -0.22718,-0.110574 -0.335847,-0.174493 v 0.186003 c 0,0.338088 -0.268846,0.612256 -0.60037,0.612256 -0.331524,0 -0.60037,-0.274168 -0.60037,-0.612256 V 17.77813 c 0,-0.338088 0.268846,-0.612256 0.60037,-0.612256 h 1.801109 c 0.331524,0 0.60037,0.274168 0.60037,0.612256 0,0.338088 -0.268846,0.612256 -0.60037,0.612256 h -0.562186 c 0.0604,0.03404 0.122355,0.06563 0.185754,0.09429 0.294542,0.133839 0.612498,0.205718 0.934776,0.211473 0.322399,0.0058 0.642636,-0.05474 0.94162,-0.177921 0.298984,-0.123186 0.570592,-0.306496 0.798612,-0.53903 0.234384,-0.239025 0.614538,-0.239025 0.849043,0 0.234384,0.239147 0.234384,0.626827 0,0.865852 -0.342091,0.348741 -0.749382,0.623766 -1.197858,0.808545 z"
     fill="#212121"
     id="path1"
     style="stroke-width:1.21257" />
</svg>
