<?xml version="1.0" encoding="UTF-8" standalone="no"?>
<svg
   width="24"
   height="24"
   viewBox="0 0 24 24"
   fill="none"
   version="1.1"
   id="svg1"
   sodipodi:docname="LoadEntities.svg"
   inkscape:export-filename="LoadEntities.png"
   inkscape:export-xdpi="96"
   inkscape:export-ydpi="96"
   inkscape:version="1.3 (0e150ed6c4, 2023-07-21)"
   xmlns:inkscape="http://www.inkscape.org/namespaces/inkscape"
   xmlns:sodipodi="http://sodipodi.sourceforge.net/DTD/sodipodi-0.dtd"
   xmlns="http://www.w3.org/2000/svg"
   xmlns:svg="http://www.w3.org/2000/svg">
  <defs
     id="defs1" />
  <sodipodi:namedview
     id="namedview1"
     pagecolor="#ffffff"
     bordercolor="#000000"
     borderopacity="0.25"
     inkscape:showpageshadow="2"
     inkscape:pageopacity="0.0"
     inkscape:pagecheckerboard="0"
     inkscape:deskcolor="#d1d1d1"
     inkscape:zoom="47.325"
     inkscape:cx="-3.0744849"
     inkscape:cy="14.421553"
     inkscape:window-width="3840"
     inkscape:window-height="2089"
     inkscape:window-x="-8"
     inkscape:window-y="-8"
     inkscape:window-maximized="1"
     inkscape:current-layer="svg1" />
  <path
     d="m 2.9223455,4.9861438 c 0,-1.25756 1.0623257,-2.1916761 2.3067643,-2.776123 1.5762849,-0.6736375 3.2711496,-1.0040249 4.9777542,-0.9703318 1.706641,-0.033693 3.401506,0.2966943 4.977755,0.9703318 1.244438,0.5844469 2.306764,1.518563 2.306764,2.776123 V 9.9815166 H 16.277296 V 7.1091349 C 15.936624,7.366816 15.570333,7.5865831 15.184619,7.7647645 13.608127,8.4375529 11.913263,8.767091 10.206864,8.7325987 8.5002594,8.7662918 6.8053947,8.4359044 5.2291098,7.7622669 4.8434674,7.5848847 4.4772018,7.3659419 4.1364319,7.1091349 V 17.474302 c 0,0.467058 0.4322148,1.092716 1.6001661,1.639698 1.4171303,0.598309 2.9387448,0.890283 4.470266,0.857939 0.604736,0.01274 1.207773,-0.02498 1.803525,-0.11227 0.193404,0.07243 0.403805,0.112394 0.62659,0.112394 h 0.569649 l -0.238931,0.983195 c -0.905344,0.194191 -1.831328,0.283856 -2.760833,0.265498 C 8.5002594,21.254474 6.8053947,20.924037 5.2291098,20.250424 3.9846712,19.665978 2.9223455,18.731862 2.9223455,17.474302 Z m 1.2140864,0 c 0,0.4670581 0.4322148,1.092716 1.6001661,1.6396984 1.4171303,0.5982589 2.9387448,0.890295 4.470266,0.8579382 1.531569,0.032357 3.053185,-0.2596793 4.470266,-0.8579382 1.167951,-0.5469824 1.600166,-1.1726403 1.600166,-1.6396984 0,-0.467058 -0.432215,-1.0927159 -1.600166,-1.6396983 C 13.260049,2.7481866 11.738433,2.4561629 10.206864,2.4885073 8.6753428,2.4561629 7.1537283,2.7481866 5.736598,3.3464455 4.5686467,3.8934279 4.1364319,4.5190858 4.1364319,4.9861438 Z M 13.985222,18.723245 c 0.394943,0 0.684623,0.381764 0.588954,0.775891 l -0.527521,2.170321 c -0.146661,0.60343 0.561029,1.032398 1.003078,0.607925 l 5.915637,-5.679251 c 0.60425,-0.580076 0.20518,-1.621341 -0.621248,-1.621341 h -0.489884 c -0.414368,0 -0.706962,-0.41748 -0.575962,-0.821847 l 0.681466,-2.10276 c 0.131,-0.404367 -0.161595,-0.821847 -0.575841,-0.821847 h -4.216523 c -0.245003,0 -0.466087,0.151606 -0.560301,0.384261 l -2.529428,6.244091 c -0.166572,0.411236 0.127237,0.864557 0.560423,0.864557 z"
     fill="#212121"
     id="path1"
     style="stroke-width:1.23132" />
</svg>
